<svg width="13" height="80" xmlns="http://www.w3.org/2000/svg" xmlns:xlink="http://www.w3.org/1999/xlink">
 <defs>
  <path id="a" d="m3,35.9c0,1 0.5,1.6 1.4,1.6s1.4,-0.5 1.4,-1.6l0,-14.4l1.5,0l0,14.4c0,1 0.5,1.6 1.4,1.6s1.4,-0.5 1.4,-1.6l0,-24.3l0.7,0l0,9c0,0.5 0.2,0.9 0.5,1.2c0.4,0.2 0.7,0.2 1.1,0c0.4,-0.2 0.6,-0.6 0.6,-1.2l0,-9.3c0,-1 -0.3,-1.9 -1,-2.6c-0.7,-0.7 -1.5,-1 -2.7,-1l-5.5,0c-1.1,0 -2,0.3 -2.6,1s-1,1.5 -1,2.5l0,9.5c0,0.5 0.2,0.8 0.6,1c0.4,0.2 0.7,0.2 1.1,0c0.4,-0.2 0.5,-0.5 0.5,-1l0,-9.1l0.6,0l0,24.3zm0.5,-32.2c0,0.9 0.3,1.6 0.9,2.2s1.3,0.9 2.1,0.9s1.5,-0.3 2.1,-0.9c0.6,-0.6 0.8,-1.4 0.8,-2.2s-0.2,-1.6 -0.8,-2.3c-0.6,-0.6 -1.3,-0.9 -2.1,-0.9s-1.5,0.3 -2.1,0.9s-0.9,1.4 -0.9,2.3z" class="st0"/>
 </defs>
 <g>
  <title>background</title>
  <rect fill="none" id="canvas_background" height="402" width="582" y="-1" x="-1"/>
 </g>
 <g>
  <title>Layer 1</title>
  <use id="svg_1" fill="#888" xlink:href="#a"/>
  <use id="svg_2" fill="#3e2723" xlink:href="#a" y="40"/>
 </g>
</svg>